# xmcd CD database file
#
# Track frame offsets:
#	150
#	11532
#	20281
#	31442
#	44029
#	53162
#	63823
#	73619
#	84454
#	94874
#	105691
#	115383
#	126713
#	138604
#	147555
#	158091
#	166956
#	177114
#	186860
#	196710
#	207270
#
# Disc length: 2873 seconds
#
# Revision: 0
# Processed by: cddbd v1.5.1PL2 Copyright (c) Steve Scherf et al.
# Submitted via: CDex 1.60beta1-cs1
#
DISCID=2f0b3715
DTITLE=Sonny James - Best of the 50's Pop Singles
DYEAR=1900
DGENRE=Country
TTITLE0=Young Love
TTITLE1=You're The Reason I'm In Love
TTITLE2=First Date, First Kiss, First Love
TTITLE3=Speak To Me
TTITLE4=A Mighty Loveable Man
TTITLE5=(Love Came, Love Saw) Love Conquered
TTITLE6=Uh-Huh-Mm
TTITLE7=Why Can't They Remember
TTITLE8=Walk To The Dance
TTITLE9=Kathaleen
TTITLE10=Are You Mine
TTITLE11=Let's Play Love
TTITLE12=I Can See It In Your Eyes
TTITLE13=You Got That Touch
TTITLE14=I Can't Stay Away From You
TTITLE15=Let Me Be The One To Love You
TTITLE16=Yo-Yo
TTITLE17=Dream Big
TTITLE18=Talk Of The School
TTITLE19=This Love Of Mine
TTITLE20=Pure Love
EXTD=
EXTT0=
EXTT1=
EXTT2=
EXTT3=
EXTT4=
EXTT5=
EXTT6=
EXTT7=
EXTT8=
EXTT9=
EXTT10=
EXTT11=
EXTT12=
EXTT13=
EXTT14=
EXTT15=
EXTT16=
EXTT17=
EXTT18=
EXTT19=
EXTT20=
PLAYORDER=
